# xmcd
#
# Track frame offsets: 
#        150
#        21759
#        45199
#        63763
#        79051
#        100159
#        119932
#        141582
#        159666
#
# Disc length: 2317 seconds
#
# Revision: 0
# Processed by: cddbd v1.5.2PL0 Copyright (c) Steve Scherf et al.
# Submitted via: ExactAudioCopy v0.99pb4
#
DISCID=75090b09
DTITLE=K.T. Oslin - This Woman
DYEAR=1988
DGENRE=Country
TTITLE0=This Woman
TTITLE1=Money
TTITLE2=Round the Clock Lovin'
TTITLE3=Where is a Woman To Go
TTITLE4=Hold Me
TTITLE5=Hey Bobby
TTITLE6=Jealous
TTITLE7=Didn't Expect It To Go Down This Way
TTITLE8=Truly Blue
EXTD=
EXTT0=
EXTT1=
EXTT2=
EXTT3=
EXTT4=
EXTT5=
EXTT6=
EXTT7=
EXTT8=
PLAYORDER=
